<svg width="19" height="13" viewBox="0 0 19 13" fill="none" xmlns="http://www.w3.org/2000/svg">
<path d="M12.0379 6.29995C12.1785 6.29995 12.291 6.29995 12.4316 6.27183L16.2848 5.14683V10.1531C16.2848 10.575 16.0035 10.9406 15.5816 11.025L9.50664 12.5718C9.22539 12.6281 8.91602 12.6281 8.63477 12.5718L2.55977 11.025C2.16602 10.9406 1.88477 10.575 1.88477 10.1531V5.14683L5.73789 6.27183C5.85039 6.29995 5.96289 6.32808 6.10352 6.32808C6.58164 6.32808 7.03164 6.07495 7.25664 5.65308L9.08477 2.6437L10.8848 5.65308C11.1098 6.04683 11.5598 6.29995 12.0379 6.29995ZM18.0285 3.14995C18.141 3.40308 18.0285 3.71245 17.7473 3.79683L12.1785 5.39995C11.9816 5.4562 11.7566 5.37183 11.6441 5.20308L9.08477 0.899951L16.116 0.0280765C16.3129 -4.85182e-05 16.4816 0.0843265 16.566 0.253076L18.0285 3.14995ZM1.57539 0.253076C1.65977 0.0843265 1.82852 -4.85182e-05 2.02539 0.0280765L9.08477 0.899951L6.49727 5.17495C6.38477 5.37183 6.15977 5.4562 5.96289 5.39995L0.394141 3.79683C0.141016 3.71245 0.00039139 3.40308 0.112891 3.14995L1.57539 0.253076Z" fill="white"/>
</svg>
