<svg width="16" height="16" viewBox="0 0 16 16" fill="none" xmlns="http://www.w3.org/2000/svg">
<path d="M7.75039 0C12.0316 0 15.5004 3.46875 15.5004 7.75C15.5004 12.0312 12.0316 15.5 7.75039 15.5C3.46914 15.5 0.000391006 12.0312 0.000391006 7.75C0.000391006 3.46875 3.46914 0 7.75039 0ZM12.2504 8.625V6.875C12.2504 6.6875 12.0629 6.5 11.8754 6.5H9.00039V3.625C9.00039 3.4375 8.81289 3.25 8.62539 3.25H6.87539C6.65664 3.25 6.50039 3.4375 6.50039 3.625V6.5H3.62539C3.40664 6.5 3.25039 6.6875 3.25039 6.875V8.625C3.25039 8.84375 3.40664 9 3.62539 9H6.50039V11.875C6.50039 12.0938 6.65664 12.25 6.87539 12.25H8.62539C8.81289 12.25 9.00039 12.0938 9.00039 11.875V9H11.8754C12.0629 9 12.2504 8.84375 12.2504 8.625Z" fill="white"/>
</svg>
