<svg width="21" height="15" viewBox="0 0 21 15" fill="none" xmlns="http://www.w3.org/2000/svg">
<path d="M13.375 7C13.5312 7 13.6562 7 13.8125 6.96875L18.0938 5.71875V11.2812C18.0938 11.75 17.7812 12.1562 17.3125 12.25L10.5625 13.9688C10.25 14.0312 9.90625 14.0312 9.59375 13.9688L2.84375 12.25C2.40625 12.1562 2.09375 11.75 2.09375 11.2812V5.71875L6.375 6.96875C6.5 7 6.625 7.03125 6.78125 7.03125C7.3125 7.03125 7.8125 6.75 8.0625 6.28125L10.0938 2.9375L12.0938 6.28125C12.3438 6.71875 12.8438 7 13.375 7ZM20.0312 3.5C20.1562 3.78125 20.0312 4.125 19.7188 4.21875L13.5312 6C13.3125 6.0625 13.0625 5.96875 12.9375 5.78125L10.0938 1L17.9062 0.03125C18.125 0 18.3125 0.09375 18.4062 0.28125L20.0312 3.5ZM1.75 0.28125C1.84375 0.09375 2.03125 0 2.25 0.03125L10.0938 1L7.21875 5.75C7.09375 5.96875 6.84375 6.0625 6.625 6L0.4375 4.21875C0.15625 4.125 0 3.78125 0.125 3.5L1.75 0.28125Z" fill="#FF611A"/>
</svg>
