<svg width="14" height="14" viewBox="0 0 14 14" fill="none" xmlns="http://www.w3.org/2000/svg">
<path d="M13.1746 6.5875C13.1746 10.2266 10.1996 13.175 6.58711 13.175C2.94805 13.175 -0.000390619 10.2266 -0.000390619 6.5875C-0.000390619 2.975 2.94805 -3.27826e-07 6.58711 -3.27826e-07C10.1996 -3.27826e-07 13.1746 2.975 13.1746 6.5875ZM5.8168 10.0937L10.7043 5.20625C10.8637 5.04687 10.8637 4.75469 10.7043 4.59531L10.0934 4.01094C9.93398 3.825 9.66836 3.825 9.50898 4.01094L5.52461 7.99531L3.63867 6.13594C3.4793 5.95 3.21367 5.95 3.0543 6.13594L2.44336 6.72031C2.28398 6.87969 2.28398 7.17187 2.44336 7.33125L5.20586 10.0937C5.36523 10.2531 5.65742 10.2531 5.8168 10.0937Z" fill="white"/>
</svg>
