<svg width="23" height="20" viewBox="0 0 23 20" fill="none" xmlns="http://www.w3.org/2000/svg">
<path d="M21.2769 16.4429C21.936 17.6147 21.0938 19.043 19.7388 19.043H2.19727C0.842285 19.043 0 17.5781 0.65918 16.4429L9.44824 1.17188C10.1074 0 11.8286 0.0366211 12.4878 1.17188L21.2769 16.4429ZM10.9863 13.2568C10.0342 13.2568 9.30176 14.0259 9.30176 14.9414C9.30176 15.8936 10.0342 16.626 10.9863 16.626C11.9019 16.626 12.6709 15.8936 12.6709 14.9414C12.6709 14.0259 11.9019 13.2568 10.9863 13.2568ZM9.375 7.21436L9.63135 12.1948C9.66797 12.4512 9.85107 12.5977 10.0708 12.5977H11.8652C12.085 12.5977 12.2681 12.4512 12.3047 12.1948L12.561 7.21436C12.5977 6.95801 12.3779 6.73828 12.1216 6.73828H9.81445C9.55811 6.73828 9.33838 6.95801 9.375 7.21436Z" fill="#555555"/>
</svg>
