<svg width="13" height="20" viewBox="0 0 13 20" fill="none" xmlns="http://www.w3.org/2000/svg">
<path d="M7.50732 1.13525C9.22852 6.92139 12.8906 8.45947 12.8906 12.5244C12.8906 16.1499 9.99756 19.043 6.44531 19.043C2.85645 19.043 0 16.1499 0 12.5244C0 8.45947 3.66211 6.88477 5.34668 1.13525C5.67627 0 7.21436 0.0732422 7.50732 1.13525ZM6.44531 16.6992C6.73828 16.6992 7.03125 16.4429 7.03125 16.1133C7.03125 15.8203 6.73828 15.5273 6.44531 15.5273C4.79736 15.5273 3.51562 14.2456 3.51562 12.5977C3.51562 12.3047 3.22266 12.0117 2.92969 12.0117C2.6001 12.0117 2.34375 12.3047 2.34375 12.5977C2.34375 14.8682 4.1748 16.6992 6.44531 16.6992Z" fill="#555555"/>
</svg>
