<svg width="19" height="19" viewBox="0 0 19 19" fill="none" xmlns="http://www.w3.org/2000/svg">
<path d="M8.75244 0.146484C9.15527 0 9.59473 0 9.96094 0.146484L17.5781 3.00293C18.2739 3.25928 18.7134 3.91846 18.7134 4.65088V12.8906C18.7134 13.5498 18.3472 14.1724 17.7612 14.4653L10.144 18.2739C9.63135 18.5303 9.08203 18.5303 8.56934 18.2739L0.952148 14.4653C0.366211 14.1724 0 13.5498 0 12.8906V4.65088C0 3.91846 0.439453 3.25928 1.13525 3.00293L8.75244 0.146484ZM9.375 2.41699L2.34375 5.05371V5.09033L9.375 7.94678L16.4062 5.09033V5.05371L9.375 2.41699ZM10.5469 15.4541L16.4062 12.5244V7.61719L10.5469 9.99756V15.4541Z" fill="#555555"/>
</svg>
