<svg width="13" height="15" viewBox="0 0 13 15" fill="none" xmlns="http://www.w3.org/2000/svg">
<path d="M0 13.05V5.40001H12.6V13.05C12.6 13.8094 11.9812 14.4 11.25 14.4H1.35C0.590625 14.4 0 13.8094 0 13.05ZM9 7.53751V8.66251C9 8.85938 9.14062 9.00001 9.3375 9.00001H10.4625C10.6312 9.00001 10.8 8.85938 10.8 8.66251V7.53751C10.8 7.36876 10.6312 7.20001 10.4625 7.20001H9.3375C9.14062 7.20001 9 7.36876 9 7.53751ZM9 11.1375V12.2625C9 12.4594 9.14062 12.6 9.3375 12.6H10.4625C10.6312 12.6 10.8 12.4594 10.8 12.2625V11.1375C10.8 10.9688 10.6312 10.8 10.4625 10.8H9.3375C9.14062 10.8 9 10.9688 9 11.1375ZM5.4 7.53751V8.66251C5.4 8.85938 5.54062 9.00001 5.7375 9.00001H6.8625C7.03125 9.00001 7.2 8.85938 7.2 8.66251V7.53751C7.2 7.36876 7.03125 7.20001 6.8625 7.20001H5.7375C5.54062 7.20001 5.4 7.36876 5.4 7.53751ZM5.4 11.1375V12.2625C5.4 12.4594 5.54062 12.6 5.7375 12.6H6.8625C7.03125 12.6 7.2 12.4594 7.2 12.2625V11.1375C7.2 10.9688 7.03125 10.8 6.8625 10.8H5.7375C5.54062 10.8 5.4 10.9688 5.4 11.1375ZM1.8 7.53751V8.66251C1.8 8.85938 1.94062 9.00001 2.1375 9.00001H3.2625C3.43125 9.00001 3.6 8.85938 3.6 8.66251V7.53751C3.6 7.36876 3.43125 7.20001 3.2625 7.20001H2.1375C1.94062 7.20001 1.8 7.36876 1.8 7.53751ZM1.8 11.1375V12.2625C1.8 12.4594 1.94062 12.6 2.1375 12.6H3.2625C3.43125 12.6 3.6 12.4594 3.6 12.2625V11.1375C3.6 10.9688 3.43125 10.8 3.2625 10.8H2.1375C1.94062 10.8 1.8 10.9688 1.8 11.1375ZM11.25 1.80001C11.9812 1.80001 12.6 2.41876 12.6 3.15001V4.50001H0V3.15001C0 2.41876 0.590625 1.80001 1.35 1.80001H2.7V0.450006C2.7 0.225006 2.89687 6.4373e-06 3.15 6.4373e-06H4.05C4.275 6.4373e-06 4.5 0.225006 4.5 0.450006V1.80001H8.1V0.450006C8.1 0.225006 8.29687 6.4373e-06 8.55 6.4373e-06H9.45C9.675 6.4373e-06 9.9 0.225006 9.9 0.450006V1.80001H11.25Z" fill="#555555"/>
</svg>
