<svg width="13" height="14" viewBox="0 0 13 14" fill="none" xmlns="http://www.w3.org/2000/svg">
<path d="M5.40211 0.859453C9.15617 0.149844 12.4295 2.98828 12.4524 6.58211C12.4295 7.40617 11.7657 8.07 10.9645 8.07H9.13328C7.96586 8.07 7.21047 9.2832 7.73695 10.3362C8.17188 11.1831 7.71406 12.2819 6.77555 12.4421C3.84555 12.877 -7.81417e-05 9.69523 0.846875 5.41469C1.2818 3.14852 3.11305 1.31727 5.40211 0.859453ZM2.92992 8.07C3.31906 8.07 3.66242 7.74953 3.66242 7.3375C3.66242 6.94836 3.31906 6.605 2.92992 6.605C2.51789 6.605 2.19742 6.94836 2.19742 7.3375C2.19742 7.74953 2.51789 8.07 2.92992 8.07ZM3.66242 5.14C4.05156 5.14 4.39492 4.81953 4.39492 4.4075C4.39492 4.01836 4.05156 3.675 3.66242 3.675C3.25039 3.675 2.92992 4.01836 2.92992 4.4075C2.92992 4.81953 3.25039 5.14 3.66242 5.14ZM6.59242 3.675C6.98156 3.675 7.32492 3.35453 7.32492 2.9425C7.32492 2.55336 6.98156 2.21 6.59242 2.21C6.18039 2.21 5.85992 2.55336 5.85992 2.9425C5.85992 3.35453 6.18039 3.675 6.59242 3.675ZM9.52242 5.14C9.91156 5.14 10.2549 4.81953 10.2549 4.4075C10.2549 4.01836 9.91156 3.675 9.52242 3.675C9.11039 3.675 8.78992 4.01836 8.78992 4.4075C8.78992 4.81953 9.11039 5.14 9.52242 5.14Z" fill="#FF611A"/>
</svg>
