<svg width="52" height="32" viewBox="0 0 52 32" fill="none" xmlns="http://www.w3.org/2000/svg">
<rect x="0.5" y="0.5" width="51" height="31" rx="3.5" fill="#C0BA16" fill-opacity="0.38"/>
<rect x="0.5" y="0.5" width="51" height="31" rx="3.5" stroke="#B09C00"/>
<path d="M21.243 21.9969H17V17.7539L28.435 6.31891C28.6225 6.13144 28.8768 6.02612 29.142 6.02612C29.4072 6.02612 29.6615 6.13144 29.849 6.31891L32.678 9.14691C32.771 9.23978 32.8447 9.35007 32.8951 9.47147C32.9454 9.59287 32.9713 9.72299 32.9713 9.85441C32.9713 9.98582 32.9454 10.116 32.8951 10.2373C32.8447 10.3587 32.771 10.469 32.678 10.5619L21.243 21.9969ZM17 23.9969H35V25.9969H17V23.9969Z" fill="#FFA629"/>
</svg>
