<svg width="22" height="22" viewBox="0 0 22 22" fill="none" xmlns="http://www.w3.org/2000/svg">
<path d="M10.5473 5.10938C13.5004 5.10938 15.9379 7.54688 15.9379 10.5C15.9379 13.5 13.5004 15.8906 10.5473 15.8906C7.54727 15.8906 5.15664 13.5 5.15664 10.5C5.15664 7.54688 7.54727 5.10938 10.5473 5.10938ZM10.5473 14.0156C12.4691 14.0156 14.016 12.4688 14.016 10.5C14.016 8.57812 12.4691 7.03125 10.5473 7.03125C8.57852 7.03125 7.03164 8.57812 7.03164 10.5C7.03164 12.4688 8.62539 14.0156 10.5473 14.0156ZM17.391 4.92188C17.391 5.625 16.8285 6.1875 16.1254 6.1875C15.4223 6.1875 14.8598 5.625 14.8598 4.92188C14.8598 4.21875 15.4223 3.65625 16.1254 3.65625C16.8285 3.65625 17.391 4.21875 17.391 4.92188ZM20.9535 6.1875C21.0473 7.92188 21.0473 13.125 20.9535 14.8594C20.8598 16.5469 20.4848 18 19.266 19.2656C18.0473 20.4844 16.5473 20.8594 14.8598 20.9531C13.1254 21.0469 7.92227 21.0469 6.18789 20.9531C4.50039 20.8594 3.04727 20.4844 1.78164 19.2656C0.562891 18 0.187891 16.5469 0.094141 14.8594C0.000391006 13.125 0.000391006 7.92188 0.094141 6.1875C0.187891 4.5 0.562891 3 1.78164 1.78125C3.04727 0.5625 4.50039 0.1875 6.18789 0.09375C7.92227 0 13.1254 0 14.8598 0.09375C16.5473 0.1875 18.0473 0.5625 19.266 1.78125C20.4848 3 20.8598 4.5 20.9535 6.1875ZM18.7035 16.6875C19.266 15.3281 19.1254 12.0469 19.1254 10.5C19.1254 9 19.266 5.71875 18.7035 4.3125C18.3285 3.42188 17.6254 2.67188 16.7348 2.34375C15.3285 1.78125 12.0473 1.92188 10.5473 1.92188C9.00039 1.92188 5.71914 1.78125 4.35977 2.34375C3.42227 2.71875 2.71914 3.42188 2.34414 4.3125C1.78164 5.71875 1.92227 9 1.92227 10.5C1.92227 12.0469 1.78164 15.3281 2.34414 16.6875C2.71914 17.625 3.42227 18.3281 4.35977 18.7031C5.71914 19.2656 9.00039 19.125 10.5473 19.125C12.0473 19.125 15.3285 19.2656 16.7348 18.7031C17.6254 18.3281 18.3754 17.625 18.7035 16.6875Z" fill="#074159"/>
</svg>
