<svg width="21" height="24" viewBox="0 0 21 24" fill="none" xmlns="http://www.w3.org/2000/svg">
<path d="M20.4373 22.5C20.7186 22.5 20.9998 22.7812 20.9998 23.0625V24H-0.00019455V23.0625C-0.00019455 22.7812 0.23418 22.5 0.562305 22.5H1.49981V1.125C1.49981 0.515625 1.96856 0 2.62481 0H18.3748C18.9842 0 19.4998 0.515625 19.4998 1.125V22.5H20.4373ZM5.99981 3.5625V5.4375C5.99981 5.76562 6.23418 6 6.56231 6H8.43731C8.71856 6 8.99981 5.76562 8.99981 5.4375V3.5625C8.99981 3.28125 8.71856 3 8.43731 3H6.56231C6.23418 3 5.99981 3.28125 5.99981 3.5625ZM5.99981 8.0625V9.9375C5.99981 10.2656 6.23418 10.5 6.56231 10.5H8.43731C8.71856 10.5 8.99981 10.2656 8.99981 9.9375V8.0625C8.99981 7.78125 8.71856 7.5 8.43731 7.5H6.56231C6.23418 7.5 5.99981 7.78125 5.99981 8.0625ZM8.43731 15C8.71856 15 8.99981 14.7656 8.99981 14.4375V12.5625C8.99981 12.2812 8.71856 12 8.43731 12H6.56231C6.23418 12 5.99981 12.2812 5.99981 12.5625V14.4375C5.99981 14.7656 6.23418 15 6.56231 15H8.43731ZM11.9998 22.5V18.5625C11.9998 18.2812 11.7186 18 11.4373 18H9.56231C9.23418 18 8.99981 18.2812 8.99981 18.5625V22.5H11.9998ZM14.9998 14.4375V12.5625C14.9998 12.2812 14.7186 12 14.4373 12H12.5623C12.2342 12 11.9998 12.2812 11.9998 12.5625V14.4375C11.9998 14.7656 12.2342 15 12.5623 15H14.4373C14.7186 15 14.9998 14.7656 14.9998 14.4375ZM14.9998 9.9375V8.0625C14.9998 7.78125 14.7186 7.5 14.4373 7.5H12.5623C12.2342 7.5 11.9998 7.78125 11.9998 8.0625V9.9375C11.9998 10.2656 12.2342 10.5 12.5623 10.5H14.4373C14.7186 10.5 14.9998 10.2656 14.9998 9.9375ZM14.9998 5.4375V3.5625C14.9998 3.28125 14.7186 3 14.4373 3H12.5623C12.2342 3 11.9998 3.28125 11.9998 3.5625V5.4375C11.9998 5.76562 12.2342 6 12.5623 6H14.4373C14.7186 6 14.9998 5.76562 14.9998 5.4375Z" fill="#074159"/>
</svg>
