<svg width="21" height="21" viewBox="0 0 21 21" fill="none" xmlns="http://www.w3.org/2000/svg">
<path d="M19.5004 0C20.2973 0 21.0004 0.703125 21.0004 1.54688V19.5C21.0004 20.3438 20.2973 21 19.5004 21H1.45352C0.656641 21 0.000391006 20.3438 0.000391006 19.5V1.54688C0.000391006 0.703125 0.656641 0 1.45352 0H19.5004ZM6.32852 18V8.01562H3.23477V18H6.32852ZM4.78164 6.60938C5.76602 6.60938 6.56289 5.8125 6.56289 4.82812C6.56289 3.84375 5.76602 3 4.78164 3C3.75039 3 2.95352 3.84375 2.95352 4.82812C2.95352 5.8125 3.75039 6.60938 4.78164 6.60938ZM18.0004 18V12.5156C18.0004 9.84375 17.391 7.73438 14.2504 7.73438C12.7504 7.73438 11.7191 8.57812 11.2973 9.375H11.2504V8.01562H8.29727V18H11.391V13.0781C11.391 11.7656 11.6254 10.5 13.266 10.5C14.8598 10.5 14.8598 12 14.8598 13.125V18H18.0004Z" fill="#074159"/>
</svg>
