<svg width="25" height="28" viewBox="0 0 25 28" fill="none" xmlns="http://www.w3.org/2000/svg">
<path d="M23.4375 7.50317L21.2812 9.65942C21.0938 9.84692 20.7188 9.84692 20.4844 9.65942L15.2812 4.4563C15.0938 4.22192 15.0938 3.84692 15.2812 3.65942L17.4375 1.50317C18.3281 0.612549 19.7812 0.612549 20.625 1.50317L23.4375 4.31567C24.3281 5.15942 24.3281 6.61255 23.4375 7.50317ZM13.4531 5.48755C13.6406 5.30005 14.0156 5.30005 14.25 5.48755L19.4531 10.6907C19.6875 10.925 19.6875 11.3 19.4531 11.4875L7.125 23.8157L1.45312 24.8C0.65625 24.9407 0 24.2844 0.140625 23.4875L1.125 17.8157L13.4531 5.48755ZM5.95312 16.7375C6.1875 17.0188 6.60938 17.0188 6.84375 16.7375L14.0625 9.5188C14.3438 9.28442 14.3438 8.86255 14.0625 8.62817C13.8281 8.34692 13.4062 8.34692 13.1719 8.62817L5.95312 15.8469C5.67188 16.0813 5.67188 16.5032 5.95312 16.7375ZM4.26562 20.675V18.425H2.53125L2.01562 21.4719L3.46875 22.925L6.51562 22.4094V20.675H4.26562Z" fill="#074159"/>
</svg>
