<svg width="14" height="14" viewBox="0 0 14 14" fill="none" xmlns="http://www.w3.org/2000/svg">
<path d="M6.58711 -3.27826e-07C10.2262 -3.27826e-07 13.1746 2.94844 13.1746 6.5875C13.1746 10.2266 10.2262 13.175 6.58711 13.175C2.94805 13.175 -0.000390619 10.2266 -0.000390619 6.5875C-0.000390619 2.94844 2.94805 -3.27826e-07 6.58711 -3.27826e-07ZM9.80117 8.34062L8.07461 6.5875L9.80117 4.86094C9.93398 4.75469 9.93398 4.54219 9.80117 4.40937L8.76523 3.37344C8.63242 3.24062 8.41992 3.24062 8.31367 3.37344L6.58711 5.1L4.86055 3.37344C4.72773 3.24062 4.51523 3.24062 4.40898 3.37344L3.34648 4.40937C3.21367 4.54219 3.21367 4.75469 3.34648 4.86094L5.09961 6.5875L3.34648 8.31406C3.21367 8.44687 3.21367 8.65937 3.34648 8.76562L4.38242 9.82812C4.51523 9.96094 4.72773 9.96094 4.83398 9.82812L6.58711 8.075L8.31367 9.82812C8.41992 9.96094 8.63242 9.96094 8.76523 9.82812L9.80117 8.79219C9.93398 8.65937 9.93398 8.44687 9.80117 8.34062Z" fill="white"/>
</svg>
