<svg width="22" height="20" viewBox="0 0 22 20" fill="none" xmlns="http://www.w3.org/2000/svg">
<path d="M20.1787 0.476074C20.8745 2.05078 21.2773 3.95508 21.2773 5.78613C21.2773 12.085 17.2124 17.2485 11.4629 17.6514C8.49658 17.981 6.2627 16.4429 5.0542 14.8315C3.18652 16.4062 2.49072 18.0176 2.41748 18.1641C2.16113 18.75 1.50195 19.043 0.879395 18.7866C0.293457 18.5303 0.000488281 17.8711 0.256836 17.2485C1.13574 15.1611 5.01758 9.48486 14.2461 9.48486C14.5391 9.48486 14.832 9.22852 14.832 8.89893C14.832 8.60596 14.5391 8.31299 14.2461 8.31299C9.44873 8.31299 6.07959 9.74121 3.73584 11.4258C3.69922 11.1694 3.69922 10.9131 3.69922 10.6567C3.69922 6.7749 6.84863 3.62549 10.7305 3.62549H13.6602C15.9673 3.62549 17.9814 2.41699 19.1167 0.439453C19.373 0 19.959 0.0366211 20.1787 0.476074Z" fill="#555555"/>
</svg>
