<svg width="16" height="19" viewBox="0 0 16 19" fill="none" xmlns="http://www.w3.org/2000/svg">
<path d="M7.58057 0.769043C7.61719 0.915527 8.20312 4.21143 8.20312 5.45654C8.20312 7.39746 7.17773 8.75244 5.67627 9.30176L6.15234 18.0176C6.15234 18.5303 5.74951 18.9331 5.27344 18.9331H2.92969C2.41699 18.9331 2.01416 18.5303 2.05078 18.0176L2.49023 9.30176C0.98877 8.75244 0 7.39746 0 5.45654C0 4.21143 0.549316 0.915527 0.585938 0.769043C0.695801 0 2.23389 0 2.34375 0.805664V5.96924C2.38037 6.0791 2.89307 6.0791 2.92969 5.96924C2.96631 5.05371 3.18604 0.878906 3.22266 0.769043C3.33252 0 4.83398 0 4.94385 0.769043C4.98047 0.878906 5.2002 5.05371 5.23682 5.96924C5.27344 6.0791 5.78613 6.0791 5.82275 5.96924V0.805664C5.93262 0 7.4707 0 7.58057 0.769043ZM11.9751 11.2061C6.22559 6.73828 11.3159 0.183105 14.3555 0.183105C14.8315 0.183105 15.2344 0.585938 15.2344 1.06201V18.0542C15.2344 18.5669 14.8315 18.9331 14.3555 18.9331H12.3047C11.792 18.9331 11.3525 18.4937 11.4258 17.981L11.9751 11.2061Z" fill="#555555"/>
</svg>
