<svg width="15" height="19" viewBox="0 0 15 19" fill="none" xmlns="http://www.w3.org/2000/svg">
<path d="M8.20312 4.98047C8.20312 5.49316 8.56934 5.85938 9.08203 5.85938H14.0625V17.8711C14.0625 18.3838 13.6597 18.75 13.1836 18.75H0.878906C0.366211 18.75 0 18.3838 0 17.8711V0.878906C0 0.402832 0.366211 0 0.878906 0H8.20312V4.98047ZM10.5469 13.623V13.3301C10.5469 13.1104 10.3271 12.8906 10.1074 12.8906H3.95508C3.69873 12.8906 3.51562 13.1104 3.51562 13.3301V13.623C3.51562 13.8794 3.69873 14.0625 3.95508 14.0625H10.1074C10.3271 14.0625 10.5469 13.8794 10.5469 13.623ZM10.5469 11.2793V10.9863C10.5469 10.7666 10.3271 10.5469 10.1074 10.5469H3.95508C3.69873 10.5469 3.51562 10.7666 3.51562 10.9863V11.2793C3.51562 11.5356 3.69873 11.7188 3.95508 11.7188H10.1074C10.3271 11.7188 10.5469 11.5356 10.5469 11.2793ZM10.5469 8.64258C10.5469 8.42285 10.3271 8.20312 10.1074 8.20312H3.95508C3.69873 8.20312 3.51562 8.42285 3.51562 8.64258V8.93555C3.51562 9.19189 3.69873 9.375 3.95508 9.375H10.1074C10.3271 9.375 10.5469 9.19189 10.5469 8.93555V8.64258ZM14.0625 4.46777V4.6875H9.375V0H9.59473C9.81445 0 10.0342 0.109863 10.2173 0.256348L13.8062 3.84521C13.9526 4.02832 14.0625 4.24805 14.0625 4.46777Z" fill="#555555"/>
</svg>
