<svg width="16" height="17" viewBox="0 0 16 17" fill="none" xmlns="http://www.w3.org/2000/svg">
<path d="M9.25 12.0312H6.75C6.3125 12.0312 6 11.7188 6 11.2812V6.03125H3.25C2.6875 6.03125 2.40625 5.375 2.8125 4.96875L7.5625 0.21875C7.78125 0 8.1875 0 8.40625 0.21875L13.1562 4.96875C13.5625 5.375 13.2812 6.03125 12.7188 6.03125H10V11.2812C10 11.7188 9.65625 12.0312 9.25 12.0312ZM16 11.7812V15.2812C16 15.7188 15.6562 16.0312 15.25 16.0312H0.75C0.3125 16.0312 0 15.7188 0 15.2812V11.7812C0 11.375 0.3125 11.0312 0.75 11.0312H5V11.2812C5 12.25 5.78125 13.0312 6.75 13.0312H9.25C10.1875 13.0312 11 12.25 11 11.2812V11.0312H15.25C15.6562 11.0312 16 11.375 16 11.7812ZM12.125 14.5312C12.125 14.1875 11.8438 13.9062 11.5 13.9062C11.1562 13.9062 10.875 14.1875 10.875 14.5312C10.875 14.875 11.1562 15.1562 11.5 15.1562C11.8438 15.1562 12.125 14.875 12.125 14.5312ZM14.125 14.5312C14.125 14.1875 13.8438 13.9062 13.5 13.9062C13.1562 13.9062 12.875 14.1875 12.875 14.5312C12.875 14.875 13.1562 15.1562 13.5 15.1562C13.8438 15.1562 14.125 14.875 14.125 14.5312Z" fill="white"/>
</svg>
