<svg width="24" height="17" viewBox="0 0 24 17" fill="none" xmlns="http://www.w3.org/2000/svg">
<path d="M22.7417 7.54395C23.1812 7.9834 23.4375 8.56934 23.4375 9.19189V12.3047C23.4375 12.6343 23.1445 12.8906 22.8516 12.8906H22.1924C22.229 13.1104 22.2656 13.2935 22.2656 13.4766C22.2656 15.1245 20.9473 16.4062 19.3359 16.4062C17.688 16.4062 16.4062 15.1245 16.4062 13.4766C16.4062 13.2935 16.4062 13.1104 16.4429 12.8906H10.4736C10.5103 13.1104 10.5469 13.2935 10.5469 13.4766C10.5469 15.1245 9.22852 16.4062 7.61719 16.4062C6.62842 16.4062 5.78613 15.9668 5.27344 15.2344C4.72412 15.9668 3.88184 16.4062 2.92969 16.4062C1.28174 16.4062 0 15.1245 0 13.4766V1.17188C0 0.549316 0.512695 0 1.17188 0H16.4062C17.0288 0 17.5781 0.549316 17.5781 1.17188V4.72412H18.9331C19.5557 4.72412 20.1416 4.94385 20.5811 5.3833L22.7417 7.54395ZM2.92969 14.6484C3.55225 14.6484 4.10156 14.1357 4.10156 13.4766C4.10156 12.854 3.55225 12.3047 2.92969 12.3047C2.27051 12.3047 1.75781 12.854 1.75781 13.4766C1.75781 14.1357 2.27051 14.6484 2.92969 14.6484ZM7.61719 14.6484C8.23975 14.6484 8.78906 14.1357 8.78906 13.4766C8.78906 12.854 8.23975 12.3047 7.61719 12.3047C6.95801 12.3047 6.44531 12.854 6.44531 13.4766C6.44531 14.1357 6.95801 14.6484 7.61719 14.6484ZM17.5781 6.44531V8.20312H20.9473L19.3359 6.62842C19.2261 6.51855 19.0796 6.44531 18.9331 6.44531H17.5781ZM19.3359 14.6484C19.9585 14.6484 20.5078 14.1357 20.5078 13.4766C20.5078 12.854 19.9585 12.3047 19.3359 12.3047C18.6768 12.3047 18.1641 12.854 18.1641 13.4766C18.1641 14.1357 18.6768 14.6484 19.3359 14.6484Z" fill="#555555"/>
</svg>
