<svg width="24" height="19" viewBox="0 0 24 19" fill="none" xmlns="http://www.w3.org/2000/svg">
<path d="M22.5586 7.03125C23.0347 7.03125 23.4375 7.43408 23.4375 7.91016V17.5781C23.4375 18.2373 22.8882 18.75 22.2656 18.75H1.17188C0.512695 18.75 0 18.2373 0 17.5781V4.39453C0 3.91846 0.366211 3.51562 0.878906 3.51562H2.34375V0.585938C2.34375 0.292969 2.6001 0 2.92969 0H3.51562C3.80859 0 4.10156 0.292969 4.10156 0.585938V3.51562H6.44531V0.585938C6.44531 0.292969 6.70166 0 7.03125 0H7.61719C7.91016 0 8.20312 0.292969 8.20312 0.585938V3.51562H10.5469V0.878906C10.5469 0.402832 10.9131 0 11.4258 0H16.6992C17.1753 0 17.5781 0.402832 17.5781 0.878906V7.03125H22.5586ZM4.6875 14.7949V13.3301C4.6875 13.1104 4.46777 12.8906 4.24805 12.8906H2.7832C2.52686 12.8906 2.34375 13.1104 2.34375 13.3301V14.7949C2.34375 15.0513 2.52686 15.2344 2.7832 15.2344H4.24805C4.46777 15.2344 4.6875 15.0513 4.6875 14.7949ZM4.6875 11.2793V9.81445C4.6875 9.59473 4.46777 9.375 4.24805 9.375H2.7832C2.52686 9.375 2.34375 9.59473 2.34375 9.81445V11.2793C2.34375 11.5356 2.52686 11.7188 2.7832 11.7188H4.24805C4.46777 11.7188 4.6875 11.5356 4.6875 11.2793ZM4.6875 7.76367V6.29883C4.6875 6.0791 4.46777 5.85938 4.24805 5.85938H2.7832C2.52686 5.85938 2.34375 6.0791 2.34375 6.29883V7.76367C2.34375 8.02002 2.52686 8.20312 2.7832 8.20312H4.24805C4.46777 8.20312 4.6875 8.02002 4.6875 7.76367ZM9.375 14.7949V13.3301C9.375 13.1104 9.15527 12.8906 8.93555 12.8906H7.4707C7.21436 12.8906 7.03125 13.1104 7.03125 13.3301V14.7949C7.03125 15.0513 7.21436 15.2344 7.4707 15.2344H8.93555C9.15527 15.2344 9.375 15.0513 9.375 14.7949ZM9.375 11.2793V9.81445C9.375 9.59473 9.15527 9.375 8.93555 9.375H7.4707C7.21436 9.375 7.03125 9.59473 7.03125 9.81445V11.2793C7.03125 11.5356 7.21436 11.7188 7.4707 11.7188H8.93555C9.15527 11.7188 9.375 11.5356 9.375 11.2793ZM9.375 7.76367V6.29883C9.375 6.0791 9.15527 5.85938 8.93555 5.85938H7.4707C7.21436 5.85938 7.03125 6.0791 7.03125 6.29883V7.76367C7.03125 8.02002 7.21436 8.20312 7.4707 8.20312H8.93555C9.15527 8.20312 9.375 8.02002 9.375 7.76367ZM15.2344 11.2793V9.81445C15.2344 9.59473 15.0146 9.375 14.7949 9.375H13.3301C13.0737 9.375 12.8906 9.59473 12.8906 9.81445V11.2793C12.8906 11.5356 13.0737 11.7188 13.3301 11.7188H14.7949C15.0146 11.7188 15.2344 11.5356 15.2344 11.2793ZM15.2344 7.76367V6.29883C15.2344 6.0791 15.0146 5.85938 14.7949 5.85938H13.3301C13.0737 5.85938 12.8906 6.0791 12.8906 6.29883V7.76367C12.8906 8.02002 13.0737 8.20312 13.3301 8.20312H14.7949C15.0146 8.20312 15.2344 8.02002 15.2344 7.76367ZM15.2344 4.24805V2.7832C15.2344 2.56348 15.0146 2.34375 14.7949 2.34375H13.3301C13.0737 2.34375 12.8906 2.56348 12.8906 2.7832V4.24805C12.8906 4.50439 13.0737 4.6875 13.3301 4.6875H14.7949C15.0146 4.6875 15.2344 4.50439 15.2344 4.24805ZM21.0938 14.7949V13.3301C21.0938 13.1104 20.874 12.8906 20.6543 12.8906H19.1895C18.9331 12.8906 18.75 13.1104 18.75 13.3301V14.7949C18.75 15.0513 18.9331 15.2344 19.1895 15.2344H20.6543C20.874 15.2344 21.0938 15.0513 21.0938 14.7949ZM21.0938 11.2793V9.81445C21.0938 9.59473 20.874 9.375 20.6543 9.375H19.1895C18.9331 9.375 18.75 9.59473 18.75 9.81445V11.2793C18.75 11.5356 18.9331 11.7188 19.1895 11.7188H20.6543C20.874 11.7188 21.0938 11.5356 21.0938 11.2793Z" fill="#555555"/>
</svg>
