<svg width="19" height="19" viewBox="0 0 19 19" fill="none" xmlns="http://www.w3.org/2000/svg">
<path d="M9.08203 0C14.0625 0 18.1641 4.10156 18.1641 9.08203C18.1641 14.0991 14.0625 18.1641 9.08203 18.1641C4.06494 18.1641 0 14.0991 0 9.08203C0 4.10156 4.06494 0 9.08203 0ZM12.085 13.1104C12.3779 12.8174 12.5977 12.3779 12.5977 11.9019C12.5977 11.6089 12.4512 11.3159 12.2681 11.1328L11.7554 10.6201C11.5356 10.4004 11.2427 10.2539 10.9131 10.2539H8.49609C8.12988 10.1074 7.69043 9.08203 7.32422 9.08203C6.92139 9.08203 6.55518 9.00879 6.18896 8.82568L5.78613 8.64258C5.63965 8.56934 5.56641 8.42285 5.56641 8.23975C5.56641 8.05664 5.67627 7.87354 5.85938 7.83691L6.99463 7.43408C7.03125 7.43408 7.10449 7.43408 7.17773 7.43408C7.32422 7.43408 7.4707 7.4707 7.54395 7.54395L7.91016 7.87354C7.94678 7.91016 8.02002 7.91016 8.09326 7.91016H8.31299C8.53271 7.91016 8.64258 7.69043 8.56934 7.50732L7.9834 6.37207C7.9834 6.33545 7.94678 6.26221 7.94678 6.22559C7.94678 6.15234 7.9834 6.0791 8.05664 6.00586L8.42285 5.67627C8.45947 5.60303 8.53271 5.56641 8.60596 5.56641H8.93555C9.00879 5.56641 9.08203 5.56641 9.15527 5.49316L9.44824 5.2002C9.55811 5.09033 9.55811 4.90723 9.44824 4.79736L9.26514 4.61426C9.15527 4.50439 9.15527 4.32129 9.26514 4.21143L9.66797 3.80859L9.81445 3.66211C10.0342 3.44238 10.0342 3.03955 9.81445 2.81982L8.78906 1.79443C8.49609 1.79443 8.1665 1.83105 7.91016 1.86768V2.30713C7.91016 2.74658 7.43408 3.00293 7.03125 2.81982L6.15234 2.38037C4.46777 3.11279 3.14941 4.43115 2.38037 6.11572C2.74658 6.66504 3.2959 7.4707 3.66211 7.9834C3.84521 8.27637 4.06494 8.49609 4.32129 8.75244H4.35791C4.6875 9.08203 5.09033 9.33838 5.49316 9.55811C6.00586 9.81445 6.7749 10.2173 7.2876 10.5103C7.65381 10.73 7.91016 11.1328 7.91016 11.5356V12.7075C7.91016 13.0371 8.02002 13.3301 8.23975 13.5498C8.78906 14.0991 9.11865 14.9414 9.08203 15.4175V16.4062C9.59473 16.4062 10.1074 16.3696 10.6201 16.2598L11.2793 14.5386C11.3525 14.3188 11.3892 14.1357 11.4258 13.916C11.4624 13.7695 11.5356 13.623 11.6455 13.5132C11.792 13.4033 11.9385 13.2568 12.085 13.1104ZM15.271 9.77783L16.333 10.0342C16.3696 9.74121 16.4062 9.41162 16.4062 9.08203C16.4062 7.91016 16.1133 6.81152 15.6006 5.82275L15.1245 6.0791C14.978 6.15234 14.8682 6.22559 14.7949 6.37207L14.0625 7.43408C13.9893 7.58057 13.916 7.76367 13.916 7.94678C13.916 8.09326 13.9893 8.27637 14.0625 8.42285L14.7217 9.41162C14.8682 9.59473 15.0513 9.70459 15.271 9.77783Z" fill="#555555"/>
</svg>
