<svg width="22" height="19" viewBox="0 0 22 19" fill="none" xmlns="http://www.w3.org/2000/svg">
<path d="M17.6875 7.03125C18.9692 7.03125 21.2031 8.09326 21.2031 9.375C21.2031 10.6934 18.9692 11.7188 17.6875 11.7188H13.4761L9.63086 18.457C9.521 18.6401 9.33789 18.75 9.11816 18.75H6.73779C6.33496 18.75 6.04199 18.3838 6.15186 18.0176L7.94629 11.7188H4.21094L2.59961 13.8428C2.48975 13.9893 2.34326 14.0625 2.16016 14.0625H0.695312C0.29248 14.0625 -0.000488281 13.7329 0.109375 13.3667L1.28125 9.375L0.109375 5.41992C-0.000488281 5.05371 0.29248 4.6875 0.695312 4.6875H2.16016C2.34326 4.6875 2.48975 4.79736 2.59961 4.94385L4.21094 7.03125H7.94629L6.15186 0.769043C6.04199 0.402832 6.33496 0 6.73779 0H9.11816C9.33789 0 9.521 0.146484 9.63086 0.32959L13.4761 7.03125H17.6875Z" fill="#555555"/>
</svg>
