<svg width="24" height="19" viewBox="0 0 24 19" fill="none" xmlns="http://www.w3.org/2000/svg">
<path d="M22.8516 12.8906C23.1445 12.8906 23.4375 13.1836 23.4375 13.4766V14.6484C23.4375 14.978 23.1445 15.2344 22.8516 15.2344H21.0938C21.0938 17.1753 19.519 18.75 17.5781 18.75C15.6372 18.75 14.0625 17.1753 14.0625 15.2344H9.375C9.375 17.1753 7.80029 18.75 5.85938 18.75C3.91846 18.75 2.34375 17.1753 2.34375 15.2344H1.75781C0.769043 15.2344 0 14.4653 0 13.4766V1.75781C0 0.805664 0.769043 0 1.75781 0H13.4766C14.4287 0 15.2344 0.805664 15.2344 1.75781V3.51562H16.8457C17.2852 3.51562 17.7612 3.73535 18.0908 4.06494L21.7163 7.69043C22.0459 8.02002 22.2656 8.49609 22.2656 8.93555V12.8906H22.8516ZM5.85938 16.9922C6.81152 16.9922 7.61719 16.2231 7.61719 15.2344C7.61719 14.2822 6.81152 13.4766 5.85938 13.4766C4.87061 13.4766 4.10156 14.2822 4.10156 15.2344C4.10156 16.2231 4.87061 16.9922 5.85938 16.9922ZM17.5781 16.9922C18.5303 16.9922 19.3359 16.2231 19.3359 15.2344C19.3359 14.2822 18.5303 13.4766 17.5781 13.4766C16.5894 13.4766 15.8203 14.2822 15.8203 15.2344C15.8203 16.2231 16.5894 16.9922 17.5781 16.9922ZM20.5078 9.375V8.93555L16.8457 5.27344H15.2344V9.375H20.5078Z" fill="#555555"/>
</svg>
