<svg width="57" height="56" viewBox="0 0 57 56" fill="none" xmlns="http://www.w3.org/2000/svg">
<path d="M24.9375 10.5L23.1875 7L19.6875 5.25L23.1875 3.5L24.9375 0L26.6875 3.5L30.1875 5.25L26.6875 7L24.9375 10.5ZM9.1875 17.5L6.23438 11.7031L0.4375 8.75L6.23438 5.90625L9.1875 0L12.0312 5.90625L17.9375 8.75L12.0312 11.7031L9.1875 17.5ZM47.6875 31.5L50.5312 37.4062L56.4375 40.25L50.5312 43.2031L47.6875 49L44.7344 43.2031L38.9375 40.25L44.7344 37.4062L47.6875 31.5ZM55.3438 10.3906C56.7656 11.7031 56.7656 13.8906 55.3438 15.3125L15.6406 55.0156C14.9844 55.6719 14.1094 56 13.125 56C12.25 56 11.375 55.6719 10.7188 55.0156L1.42188 45.7188C0 44.4062 0 42.2188 1.42188 40.7969L41.125 1.09375C41.7812 0.4375 42.6562 0 43.6406 0C44.5156 0 45.3906 0.4375 46.0469 1.09375L55.3438 10.3906ZM39.7031 22.3125L49.2188 12.7969L43.6406 7.21875L34.125 16.7344L39.7031 22.3125Z" fill="#FF611A"/>
</svg>
