<svg width="19" height="8" viewBox="0 0 19 8" fill="none" xmlns="http://www.w3.org/2000/svg">
<path d="M18.1641 4.6875C18.457 4.6875 18.75 4.98047 18.75 5.27344V6.44531C18.75 6.7749 18.457 7.03125 18.1641 7.03125H0.585938C0.256348 7.03125 0 6.7749 0 6.44531V5.27344C0 4.98047 0.256348 4.6875 0.585938 4.6875H18.1641ZM18.1641 0C18.457 0 18.75 0.292969 18.75 0.585938V1.75781C18.75 2.0874 18.457 2.34375 18.1641 2.34375H0.585938C0.256348 2.34375 0 2.0874 0 1.75781V0.585938C0 0.292969 0.256348 0 0.585938 0H18.1641Z" fill="#555555"/>
</svg>
