<svg width="70" height="43" viewBox="0 0 70 43" fill="none" xmlns="http://www.w3.org/2000/svg">
<path d="M47.4688 0C48.4531 0 49.3281 0.4375 49.9844 1.09375L55.8906 7V28.2188C55.6719 27.8906 55.3438 27.6719 55.125 27.3438L39.1562 14.4375L42 11.8125C42.7656 11.1562 42.7656 10.0625 42.1094 9.40625C41.4531 8.64062 40.3594 8.64062 39.5938 9.29688L30.9531 17.2812C30.8438 17.2812 30.8438 17.2812 30.8438 17.2812C28.9844 18.9219 26.1406 18.4844 24.7188 16.9531C23.1875 15.3125 23.1875 12.5781 24.9375 10.8281L35.7656 0.984375C36.4219 0.328125 37.1875 0 38.0625 0H47.4688ZM59.5 7.10938H70V35.1094H63C61.0312 35.1094 59.5 33.4688 59.5 31.6094V7.10938ZM64.75 31.6094C65.625 31.6094 66.5 30.7344 66.5 29.8594C66.5 28.875 65.625 28.1094 64.75 28.1094C63.7656 28.1094 63 28.875 63 29.8594C63 30.7344 63.7656 31.6094 64.75 31.6094ZM0 35V7.10938H10.5V31.5C10.5 33.4688 8.85938 35 7 35H0ZM5.25 28.1094C4.26562 28.1094 3.5 28.875 3.5 29.8594C3.5 30.7344 4.26562 31.6094 5.25 31.6094C6.125 31.6094 7 30.7344 7 29.8594C7 28.875 6.125 28.1094 5.25 28.1094ZM52.8281 30.0781C54.3594 31.2812 54.5781 33.4688 53.375 35L52.3906 36.3125C51.0781 37.8438 48.8906 38.0625 47.4688 36.8594L46.8125 36.3125L43.4219 40.5781C42 42.3281 39.375 42.5469 37.625 41.125L35.7656 39.4844H35.6562C33.25 42.4375 28.875 42.9844 25.8125 40.4688L15.9688 31.5H14V7L19.9062 1.09375C20.5625 0.4375 21.4375 0 22.4219 0H31.6094L22.6406 8.20312C19.4688 11.1562 19.25 16.1875 22.0938 19.3594C25.0469 22.5312 29.9688 22.8594 33.25 19.7969L36.5312 16.8438L52.8281 30.0781Z" fill="#FF611A"/>
</svg>
