<svg width="18" height="19" viewBox="0 0 18 19" fill="none" xmlns="http://www.w3.org/2000/svg">
<path d="M16.6987 14.7949C17.7607 16.5161 16.5156 18.75 14.5015 18.75H3.25879C1.24463 18.75 -0.000488281 16.5161 1.06152 14.7949L5.38281 7.87354V2.34375H5.08984C4.57715 2.34375 4.21094 1.97754 4.21094 1.46484V0.878906C4.21094 0.402832 4.57715 0 5.08984 0H12.707C13.1831 0 13.5859 0.402832 13.5859 0.878906V1.46484C13.5859 1.97754 13.1831 2.34375 12.707 2.34375H12.4141V7.87354L16.6987 14.7949ZM5.7124 11.7188H12.0112L10.2534 8.89893C10.1436 8.71582 10.0337 8.45947 10.0337 8.20312V2.34375H7.68994V8.20312C7.68994 8.45947 7.6167 8.71582 7.50684 8.89893L5.7124 11.7188Z" fill="#555555"/>
</svg>
