<svg width="22" height="15" viewBox="0 0 22 15" fill="none" xmlns="http://www.w3.org/2000/svg">
<path d="M21.2397 12.4146C21.5693 13.1836 21.02 14.0625 20.2144 14.0625H13L12.6338 10.5103C12.5972 10.2173 12.3408 9.96094 12.0479 9.96094H9.521C9.22803 9.96094 8.97168 10.2173 8.93506 10.5103L8.56885 14.0625H1.35449C0.548828 14.0625 -0.000488281 13.1836 0.329102 12.4146L5.45605 0.695801C5.63916 0.292969 6.04199 0 6.48145 0H10.0337L9.96045 0.878906C9.92383 1.02539 10.0703 1.17188 10.2534 1.17188H11.3154C11.4985 1.17188 11.645 1.02539 11.6084 0.878906L11.5352 0H15.0874C15.5269 0 15.9297 0.292969 16.1128 0.695801L21.2397 12.4146ZM9.77734 2.63672L9.59424 4.21143C9.59424 4.46777 9.77734 4.6875 10.0337 4.6875H11.5352C11.7915 4.6875 11.9746 4.46777 11.9746 4.21143L11.7915 2.63672C11.7915 2.49023 11.645 2.34375 11.4985 2.34375H10.0703V2.38037C9.92383 2.38037 9.77734 2.49023 9.77734 2.63672ZM11.7915 8.78906C12.1577 8.78906 12.4141 8.49609 12.3774 8.1665L12.1943 6.40869C12.1577 6.11572 11.9014 5.85938 11.6084 5.85938H9.96045C9.66748 5.85938 9.41113 6.11572 9.37451 6.40869L9.19141 8.1665C9.15479 8.49609 9.41113 8.78906 9.77734 8.78906H11.7915Z" fill="#555555"/>
</svg>
