<svg width="19" height="19" viewBox="0 0 19 19" fill="none" xmlns="http://www.w3.org/2000/svg">
<path d="M14.063 10.5469H4.68799L2.34424 0H7.54443C8.67969 0 9.63184 0.732422 9.96143 1.75781C10.3276 2.7832 11.2798 3.51562 12.415 3.51562H16.4067L14.063 10.5469ZM0.000488281 17.5781V15.2344H18.7505V17.5781C18.7505 18.2373 18.2378 18.75 17.5786 18.75H1.17236C0.549805 18.75 0.000488281 18.2373 0.000488281 17.5781ZM17.5786 8.20312C18.2378 8.20312 18.7505 8.75244 18.7505 9.375V14.0625H0.000488281V9.375C0.000488281 8.75244 0.549805 8.20312 1.17236 8.20312H2.9668L3.51611 10.5469H2.93018C2.63721 10.5469 2.34424 10.8032 2.34424 11.1328C2.34424 11.4624 2.63721 11.7188 2.93018 11.7188H15.8208C16.1504 11.7188 16.4067 11.4624 16.4067 11.1328C16.4067 10.8032 16.1504 10.5469 15.8208 10.5469H15.3081L16.0771 8.20312H17.5786Z" fill="#555555"/>
</svg>
