<svg width="11" height="14" viewBox="0 0 11 14" fill="none" xmlns="http://www.w3.org/2000/svg">
<path d="M9.5625 1.69999C9.5625 4.11718 8.18125 6.16249 6.34844 6.79999C8.18125 7.46406 9.5625 9.50937 9.5625 11.9C9.90781 11.9 10.2 12.1922 10.2 12.5375V12.9625C10.2 13.3344 9.90781 13.6 9.5625 13.6H0.6375C0.265625 13.6 0 13.3344 0 12.9625V12.5375C0 12.1922 0.265625 11.9 0.6375 11.9C0.6375 9.50937 1.99219 7.46406 3.825 6.79999C1.99219 6.16249 0.6375 4.11718 0.6375 1.69999C0.265625 1.69999 0 1.43437 0 1.06249V0.637494C0 0.292181 0.265625 -6.4373e-06 0.6375 -6.4373e-06H9.5625C9.90781 -6.4373e-06 10.2 0.292181 10.2 0.637494V1.06249C10.2 1.43437 9.90781 1.69999 9.5625 1.69999Z" fill="white"/>
</svg>
