<svg width="12" height="14" viewBox="0 0 12 14" fill="none" xmlns="http://www.w3.org/2000/svg">
<path d="M3.6625 7.3375V8.29891L0.0228906 11.9156C0 11.8698 0 11.8012 0 11.7325V1.4775C0 1.08836 0.320469 0.745 0.7325 0.745H2.93C3.31914 0.745 3.6625 1.08836 3.6625 1.4775V2.21H2.38063C2.26617 2.21 2.1975 2.30156 2.1975 2.39312V2.75937C2.1975 2.87383 2.26617 2.9425 2.38063 2.9425H3.6625V4.4075H2.38063C2.26617 4.4075 2.1975 4.49906 2.1975 4.59062V4.95687C2.1975 5.07133 2.26617 5.14 2.38063 5.14H3.6625V6.605H2.38063C2.26617 6.605 2.1975 6.69656 2.1975 6.78812V7.15437C2.1975 7.26883 2.26617 7.3375 2.38063 7.3375H3.6625ZM10.9875 8.8025C11.3766 8.8025 11.72 9.14586 11.72 9.535V11.7325C11.72 12.1445 11.3766 12.465 10.9875 12.465H0.7325C0.663828 12.465 0.595156 12.465 0.549375 12.4421L4.16609 8.8025H5.1275V10.0844C5.1275 10.1988 5.19617 10.2675 5.31063 10.2675H5.67688C5.76844 10.2675 5.86 10.1988 5.86 10.0844V8.8025H7.325V10.0844C7.325 10.1988 7.39367 10.2675 7.50813 10.2675H7.87438C7.96594 10.2675 8.0575 10.1988 8.0575 10.0844V8.8025H9.5225V10.0844C9.5225 10.1988 9.59117 10.2675 9.70563 10.2675H10.0719C10.1634 10.2675 10.255 10.1988 10.255 10.0844V8.8025H10.9875Z" fill="#23C8B8"/>
</svg>
