<svg width="52" height="32" viewBox="0 0 52 32" fill="none" xmlns="http://www.w3.org/2000/svg">
<rect x="0.5" y="0.5" width="51" height="31" rx="3.5" fill="#00FF04" fill-opacity="0.38"/>
<rect x="0.5" y="0.5" width="51" height="31" rx="3.5" stroke="#009E00"/>
<path d="M26 13C26.7956 13 27.5587 13.3161 28.1213 13.8787C28.6839 14.4413 29 15.2044 29 16C29 16.7956 28.6839 17.5587 28.1213 18.1213C27.5587 18.6839 26.7956 19 26 19C25.2044 19 24.4413 18.6839 23.8787 18.1213C23.3161 17.5587 23 16.7956 23 16C23 15.2044 23.3161 14.4413 23.8787 13.8787C24.4413 13.3161 25.2044 13 26 13ZM26 8.5C31 8.5 35.27 11.61 37 16C35.27 20.39 31 23.5 26 23.5C21 23.5 16.73 20.39 15 16C16.73 11.61 21 8.5 26 8.5ZM17.18 16C17.9883 17.6503 19.2433 19.0407 20.8025 20.0133C22.3617 20.9858 24.1624 21.5013 26 21.5013C27.8376 21.5013 29.6383 20.9858 31.1975 20.0133C32.7567 19.0407 34.0117 17.6503 34.82 16C34.0117 14.3497 32.7567 12.9593 31.1975 11.9867C29.6383 11.0142 27.8376 10.4987 26 10.4987C24.1624 10.4987 22.3617 11.0142 20.8025 11.9867C19.2433 12.9593 17.9883 14.3497 17.18 16Z" fill="#14AE5C"/>
</svg>
